<?xml version="1.0" encoding="UTF-8" standalone="no"?>
<svg
   viewBox="0 0 448 512"
   version="1.1"
   id="svg4"
   sodipodi:docname="database-export.svg"
   inkscape:version="1.1.2 (76b9e6a115, 2022-02-25)"
   xmlns:inkscape="http://www.inkscape.org/namespaces/inkscape"
   xmlns:sodipodi="http://sodipodi.sourceforge.net/DTD/sodipodi-0.dtd"
   xmlns="http://www.w3.org/2000/svg"
   xmlns:svg="http://www.w3.org/2000/svg">
  <defs
     id="defs8" />
  <sodipodi:namedview
     id="namedview6"
     pagecolor="#ffffff"
     bordercolor="#666666"
     borderopacity="1.0"
     inkscape:pageshadow="2"
     inkscape:pageopacity="0.0"
     inkscape:pagecheckerboard="0"
     showgrid="false"
     inkscape:zoom="0.70214844"
     inkscape:cx="178.73713"
     inkscape:cy="180.87344"
     inkscape:window-width="1920"
     inkscape:window-height="1115"
     inkscape:window-x="0"
     inkscape:window-y="0"
     inkscape:window-maximized="1"
     inkscape:current-layer="svg4" />
  <path
     id="path2"
     d="M 220.25586 -0.13085938 C 216.98886 -0.13085938 213.72109 1.1070312 211.24609 3.5820312 L 110.72852 104.0332 C 102.41252 112.3492 108.2852 126.54102 120.0332 126.54102 L 177.98242 126.54102 L 177.98242 161.56445 C 192.84058 160.54762 208.22231 160 224 160 C 237.14062 160 249.94156 160.44479 262.46289 161.15625 L 262.46289 126.54102 L 320.34375 126.54102 C 332.09171 126.54102 337.96639 112.3492 329.65039 104.0332 L 229.26367 3.5820312 C 226.78867 1.1070312 223.52286 -0.13085938 220.25586 -0.13085938 z M 262.46289 161.15625 L 262.46289 237.41992 C 262.46289 246.19792 255.40105 253.25977 246.62305 253.25977 L 193.82227 253.25977 C 185.04427 253.25977 177.98242 246.19792 177.98242 237.41992 L 177.98242 161.56445 C 76.380907 168.51765 0 197.99635 0 233.14258 L 0 278.85742 C 0 319.14342 100.333 352 224 352 C 347.667 352 448 319.14342 448 278.85742 L 448 233.14258 C 448 197.13729 367.78033 167.14034 262.46289 161.15625 z M 0 336 L 0 438.85742 C 12.224652 531.3732 389.27533 539.54069 448 438.85742 L 448 336 C 399.874 369.143 311.792 384.57227 224 384.57227 C 136.208 384.57227 48.125 369.143 0 336 z " />
</svg>
