<?xml version="1.0" encoding="UTF-8" standalone="no"?>
<svg
   viewBox="0 0 493.13517 707.90626"
   version="1.1"
   id="svg4"
   sodipodi:docname="database-export.svg"
   width="493.13516"
   height="707.90625"
   inkscape:version="1.1.2 (76b9e6a115, 2022-02-25)"
   xmlns:inkscape="http://www.inkscape.org/namespaces/inkscape"
   xmlns:sodipodi="http://sodipodi.sourceforge.net/DTD/sodipodi-0.dtd"
   xmlns="http://www.w3.org/2000/svg"
   xmlns:svg="http://www.w3.org/2000/svg">
  <defs
     id="defs8" />
  <sodipodi:namedview
     id="namedview6"
     pagecolor="#ffffff"
     bordercolor="#666666"
     borderopacity="1.0"
     inkscape:pageshadow="2"
     inkscape:pageopacity="0.0"
     inkscape:pagecheckerboard="0"
     showgrid="false"
     inkscape:zoom="0.99298784"
     inkscape:cx="47.331899"
     inkscape:cy="386.71168"
     inkscape:window-width="1803"
     inkscape:window-height="1115"
     inkscape:window-x="0"
     inkscape:window-y="0"
     inkscape:window-maximized="0"
     inkscape:current-layer="svg4" />
  <path
     id="rect2455"
     style="fill:#000000;stroke-width:1.02683"
     d="M 246.80273 0 C 240.66061 0 234.51853 2.3427969 229.83203 7.0292969 L 143.77148 93.087891 C 128.65248 108.20789 139.36019 134.06055 160.74219 134.06055 L 206.80273 134.06055 L 206.80273 196.93945 C 219.72511 196.31605 232.88855 195.90625 246.40039 195.90625 C 260.19221 195.90625 273.62685 196.3276 286.80273 196.97656 L 286.80273 134.06055 L 332.85938 134.06055 C 354.24138 134.06055 364.95103 108.20689 349.83203 93.087891 L 263.77148 7.0292969 C 259.08548 2.3427969 252.94486 0 246.80273 0 z M 286.80273 196.97656 L 286.80273 436 C 286.80273 442.627 281.42973 448 274.80273 448 L 218.80273 448 C 212.17573 448 206.80273 442.627 206.80273 436 L 206.80273 196.93945 C 89.625984 202.59229 1.7065774e-14 232.76431 0 269.04883 L 0 314.76367 C 0 315.54117 0.11565762 316.31025 0.19726562 317.08203 L 0.19726562 372.01953 C 0.13453562 371.98043 0.062608 371.94543 0 371.90625 L 0 474.76367 C 0 475.54117 0.11565762 476.31025 0.19726562 477.08203 L 0.19726562 532.01953 C 0.13453562 531.98033 0.062608 531.94543 0 531.90625 L 0 634.76367 C 0 675.04968 110.36669 707.90625 246.40039 707.90625 C 382.43409 707.90625 492.80078 675.04968 492.80078 634.76367 L 492.80078 621.60742 L 493.13477 621.60742 L 493.13477 280.31641 L 492.80078 280.31641 L 492.80078 269.04883 C 492.80078 232.84723 403.58533 202.72858 286.80273 196.97656 z " />
  <path
     id="path2-7-5"
     style="fill:#0000ff"
     d="m -233.93632,5.57227 c -15.30037,0.16937 -30.20439,7.36503 -40.32072,18.76211 -28.60243,28.62317 -57.26075,57.19248 -85.75156,85.92539 -12.30518,13.91662 -16.44592,34.49422 -10.54174,52.09969 4.79032,14.7413 16.18852,27.20723 30.52104,33.15191 5.94132,2.50392 12.35497,3.75783 18.78438,4.01011 6.03273,0.29909 12.07335,0.005 18.10938,0.0879 0.0179,91.51814 0.0285,183.03694 0.0723,274.55468 0.79494,15.30736 10.90325,29.56679 24.84541,35.79157 5.77886,2.66748 12.19532,3.5424 18.50888,3.61308 18.94022,-0.0474 37.88256,0.11787 56.8215,-0.17613 9.46513,-0.18738 18.62127,-4.27062 25.63786,-10.52649 7.45877,-6.64605 12.6596,-15.97948 13.68102,-25.97745 0.6618,-5.90826 0.34934,-11.86415 0.44276,-17.79567 -0.003,-86.49128 -0.006,-172.98255 -0.01,-259.47383 7.75372,-0.0352 15.5226,0.0965 23.26015,-0.46811 18.55535,-2.30789 35.36732,-15.15743 42.511895,-32.42999 5.99478,-14.08186 5.70078,-30.73547 -0.9984,-44.5206 -2.671115,-5.57737 -6.482385,-10.52611 -10.762895,-14.9599 -4.39631,-4.60245 -9.0864,-8.9141 -13.48957,-13.51046 C -147.60975,68.75915 -172.5492,43.73634 -197.65313,18.875 -207.57227,10.18732 -220.76436,5.40781 -233.93632,5.57227 Z" />
</svg>
