<?xml version="1.0" encoding="UTF-8" standalone="no"?>
<svg
   viewBox="0 0 448 512"
   version="1.1"
   id="svg4"
   sodipodi:docname="database-import.svg"
   inkscape:version="1.1.2 (76b9e6a115, 2022-02-25)"
   xmlns:inkscape="http://www.inkscape.org/namespaces/inkscape"
   xmlns:sodipodi="http://sodipodi.sourceforge.net/DTD/sodipodi-0.dtd"
   xmlns="http://www.w3.org/2000/svg"
   xmlns:svg="http://www.w3.org/2000/svg">
  <defs
     id="defs8" />
  <sodipodi:namedview
     id="namedview6"
     pagecolor="#ffffff"
     bordercolor="#666666"
     borderopacity="1.0"
     inkscape:pageshadow="2"
     inkscape:pageopacity="0.0"
     inkscape:pagecheckerboard="0"
     showgrid="false"
     inkscape:zoom="0.70214844"
     inkscape:cx="178.73713"
     inkscape:cy="180.87344"
     inkscape:window-width="1920"
     inkscape:window-height="1115"
     inkscape:window-x="0"
     inkscape:window-y="0"
     inkscape:window-maximized="1"
     inkscape:current-layer="svg4" />
  <path
     id="path2"
     d="M 193.82227 -0.13085938 C 185.04427 -0.13085938 177.98242 6.9309844 177.98242 15.708984 L 177.98242 126.58984 L 120.0332 126.58984 C 108.2852 126.58984 102.41252 140.7797 110.72852 149.0957 L 128.69141 167.04688 C 157.64747 162.57648 189.87125 160 224 160 C 255.53817 160 285.52023 162.15959 312.74609 166.01172 L 329.65039 149.0957 C 337.96639 140.7797 332.09171 126.58984 320.34375 126.58984 L 262.46289 126.58984 L 262.46289 15.708984 C 262.46289 6.9309844 255.40105 -0.13085937 246.62305 -0.13085938 L 193.82227 -0.13085938 z M 312.74609 166.01172 L 229.26367 249.54688 C 224.31367 254.49687 216.19609 254.49687 211.24609 249.54688 L 128.69141 167.04688 C 52.723907 178.77515 0 203.97442 0 233.14258 L 0 278.85742 C 0 319.14342 100.333 352 224 352 C 347.667 352 448 319.14342 448 278.85742 L 448 233.14258 C 448 203.13051 392.27789 177.26451 312.74609 166.01172 z M 0 336 L 0 438.85742 C 12.224652 531.3732 389.27533 539.54069 448 438.85742 L 448 336 C 399.874 369.143 311.792 384.57227 224 384.57227 C 136.208 384.57227 48.125 369.143 0 336 z " />
</svg>
